<?xml version="1.0" encoding="UTF-8" standalone="no"?>
<svg
   xmlns:dc="http://purl.org/dc/elements/1.1/"
   xmlns:cc="http://creativecommons.org/ns#"
   xmlns:rdf="http://www.w3.org/1999/02/22-rdf-syntax-ns#"
   xmlns:svg="http://www.w3.org/2000/svg"
   xmlns="http://www.w3.org/2000/svg"
   xmlns:sodipodi="http://sodipodi.sourceforge.net/DTD/sodipodi-0.dtd"
   xmlns:inkscape="http://www.inkscape.org/namespaces/inkscape"
   version="1.1"
   id="svg2"
   xml:space="preserve"
   width="755.90668"
   height="491.33334"
   viewBox="0 0 755.90668 491.33334"
   sodipodi:docname="56560.eps"><metadata
     id="metadata8"><rdf:RDF><cc:Work
         rdf:about=""><dc:format>image/svg+xml</dc:format><dc:type
           rdf:resource="http://purl.org/dc/dcmitype/StillImage" /></cc:Work></rdf:RDF></metadata><defs
     id="defs6" /><sodipodi:namedview
     pagecolor="#ffffff"
     bordercolor="#666666"
     borderopacity="1"
     objecttolerance="10"
     gridtolerance="10"
     guidetolerance="10"
     inkscape:pageopacity="0"
     inkscape:pageshadow="2"
     inkscape:window-width="640"
     inkscape:window-height="480"
     id="namedview4" /><g
     id="g10"
     inkscape:groupmode="layer"
     inkscape:label="ink_ext_XXXXXX"
     transform="matrix(1.3333333,0,0,-1.3333333,0,491.33333)"><g
       id="g12"
       transform="scale(0.1)"><path
         d="M 0,0 H 5669.29 V 3685.04 H 0 Z"
         style="fill:#ffffff;fill-opacity:1;fill-rule:nonzero;stroke:none"
         id="path14" /><path
         d="m 479.52,1417.23 c 0,0 27.921,25.61 81.132,-20.75 l 24.739,38.46 c 0,0 -59.754,47.27 -105.871,-17.71"
         style="fill:#5c73c1;fill-opacity:1;fill-rule:nonzero;stroke:none"
         id="path16" /><path
         d="m 576.98,1529.54 c 0,0 -33.015,-41.02 14.536,-87.75 l -32.09,-32.39 c 0,0 -73.559,90.14 17.554,120.14"
         style="fill:#5c73c1;fill-opacity:1;fill-rule:nonzero;stroke:none"
         id="path18" /><path
         d="m 441.492,424.09 c 57.883,89.539 148.84,113.82 148.84,113.82 l 217.938,80.762 h 208.05 L 1234.2,537.91 c 0,0 90.95,-24.281 148.85,-113.82 H 441.492"
         style="fill:#ace4f7;fill-opacity:1;fill-rule:nonzero;stroke:none"
         id="path20" /><path
         d="m 1196.48,0 h 336.7 c 0,57.5117 -3.75,139.461 -3.75,139.461 C 1509.64,483.762 1258.71,537.91 1258.71,537.91 1063.06,585.27 1169.7,282.648 1169.7,282.648 1164.58,209.711 1175.43,111.609 1196.48,0"
         style="fill:#63cce8;fill-opacity:1;fill-rule:nonzero;stroke:none"
         id="path22" /><path
         d="M 769.492,544.531 H 1055.11 V 823.012 H 769.492 V 544.531"
         style="fill:#ace4f7;fill-opacity:1;fill-rule:nonzero;stroke:none"
         id="path24" /><path
         d="m 1055.11,693.582 v 129.43 H 769.492 v -64.114 c 81.465,-67.796 179.61,-76.41 285.618,-65.316"
         style="fill:#80d6f5;fill-opacity:1;fill-rule:nonzero;stroke:none"
         id="path26" /><path
         d="m 1359.19,0 c 5.47,150.16 3.8,191.398 2.45,242.621 -2.98,114.078 -27.37,210.5 -102.58,295.18 l -0.35,0.109 -203.62,66.391 c 0,0 42.82,-74.942 -144.309,-74.942 0,0 -123.293,4.789 -141.289,74.942 L 562.703,537.91 c 0,0 -176.765,-43.488 -207.078,-229.558 L 459.551,117.301 455.852,0 h 903.338"
         style="fill:#5c73c1;fill-opacity:1;fill-rule:nonzero;stroke:none"
         id="path28" /><path
         d="m 1277.09,1171.09 c 8.12,64.06 -5.52,125.4 -4.85,188.52 0.47,42.36 -7.82,106.29 -60.48,111.65 -72.98,7.46 -95.5,-118.56 -99.81,-173.17 -5.94,-75.29 12.73,-156.65 27.25,-230.32 5.22,-26.61 4.69,-79.778 34.64,-92.629 25.61,-10.981 51.79,14.898 64.89,34.129 31.56,46.44 31.62,108.2 38.36,161.82"
         style="fill:#5c73c1;fill-opacity:1;fill-rule:nonzero;stroke:none"
         id="path30" /><path
         d="m 1222.96,861.77 c -28.87,-112.95 -79.71,-144.079 -79.71,-144.079 l -68.19,-13.3 c -39.23,4.968 -106.908,20.941 -106.908,20.941 -155.757,52.957 -200.894,67.27 -225.047,126.469 -1.015,2.508 -122.785,425.159 -122.785,425.159 -19.91,217.55 207.793,262.82 242.18,268.49 34.004,7.86 250.82,68.11 314.87,-140.73 0,0 94.61,-241.97 45.59,-542.95"
         style="fill:#ace4f7;fill-opacity:1;fill-rule:nonzero;stroke:none"
         id="path32" /><path
         d="m 1294.57,1615.23 c 12.33,-67.55 0.78,-161.04 -51.54,-204.16 -56.84,-46.79 -105.61,-34.09 -174,-49.27 -71.1,-15.79 -143.842,-22.04 -215.3,-35.89 -50.039,-9.68 -107.8,-15.23 -130.839,-68.31 -30.442,-70.15 -36.453,-161.69 -15.938,-230.05 17.039,-56.941 22.277,-112.32 41.008,-186.448 -64.609,53.457 -114.77,131.418 -114.77,131.418 -32.207,56.65 -32.207,56.65 -68.523,155.2 -21.301,57.76 -39.695,108.55 -42.449,168.11 -3.535,76.81 33.719,110.29 74.722,180.82 38.528,66.32 92.61,112.23 163.118,133.24 0,0 357.471,-20.09 350.761,61.58 0,0 85.84,-21.93 69.51,-79.02 0,0 89.82,16.41 70.76,79.02 0,0 36.33,-17.11 43.48,-56.24"
         style="fill:#5c73c1;fill-opacity:1;fill-rule:nonzero;stroke:none"
         id="path34" /><path
         d="m 721.289,1042.22 c 0,0 -38.508,83.89 -99.016,34.2 0,0 -27.554,-21.5 6.379,-77.65 0,0 49.286,-80.7 108.328,-35.989 l -15.691,79.439"
         style="fill:#ace4f7;fill-opacity:1;fill-rule:nonzero;stroke:none"
         id="path36" /><path
         d="m 715.266,1237.85 c 0,0 0.254,-150.17 27.839,-229.82 l -29.265,-5.8 c 0,0 -15.395,102.99 -68.41,104.21 l 69.836,131.41"
         style="fill:#5c73c1;fill-opacity:1;fill-rule:nonzero;stroke:none"
         id="path38" /><path
         d="M 644.473,0 H 329.727 c 0.109,0 1.101,74.7109 1.269,80.0117 2.363,73.4683 7.012,147.4573 20.242,219.8673 18.93,103.512 69.184,195.293 179.809,221.59 50.633,12.043 95.641,-18.61 123.062,-60.289 0,0 50.09,-61.731 -9.636,-461.18"
         style="fill:#63cce8;fill-opacity:1;fill-rule:nonzero;stroke:none"
         id="path40" /><path
         d="m 3562.05,643.051 c -51.87,18.828 -84.56,62.168 -146.13,56.758 -109.51,-9.68 -187.21,-132.77 -292.6,-49.258 -127.57,101.148 -94.05,709.539 -38.76,847.349 46.9,116.88 133.36,2.62 256.75,41.89 143.35,45.61 266.94,-67.49 341.06,-184.96 77.13,-122.3 116.87,-278.02 105.47,-421.498 -10.51,-132.57 -34.46,-359.75 -225.79,-290.281"
         style="fill:#5c73c1;fill-opacity:1;fill-rule:nonzero;stroke:none"
         id="path42" /><path
         d="m 4051.38,0 h -268.79 l -48.06,194.07 c 0,0 -39.07,294.59 162.94,298.711 0,0 104.83,-73.5 133.42,-246.402 0,0 22.62,-138.188 20.49,-246.379"
         style="fill:#63cce8;fill-opacity:1;fill-rule:nonzero;stroke:none"
         id="path44" /><path
         d="m 3117.79,0 36.26,146.398 c 0,0 39.08,294.582 -162.94,298.704 0,0 -121.14,-88.231 -110.52,-445.102 h 237.2"
         style="fill:#63cce8;fill-opacity:1;fill-rule:nonzero;stroke:none"
         id="path46" /><path
         d="m 3320.83,559.629 h 245.25 V 918.68 H 3320.83 V 559.629"
         style="fill:#ace4f7;fill-opacity:1;fill-rule:nonzero;stroke:none"
         id="path48" /><path
         d="M 3566.08,772.141 V 918.68 H 3320.83 V 707.602 c 80.91,2.457 176.89,17.097 245.25,64.539"
         style="fill:#80d6f5;fill-opacity:1;fill-rule:nonzero;stroke:none"
         id="path50" /><path
         d="m 2995.75,445.121 c 55.04,85.129 141.53,108.238 141.53,108.238 l 207.27,76.77 h 197.81 l 253.43,-76.77 c 0,0 86.52,-23.109 141.56,-108.238 h -941.6"
         style="fill:#ace4f7;fill-opacity:1;fill-rule:nonzero;stroke:none"
         id="path52" /><path
         d="m 3046.52,0 h 816.6 l -5.23,153.41 120.08,181.692 C 3951.28,512 3795.79,553.359 3795.79,553.359 l -199.58,56.813 c 0,0 11.9,-64.973 -152.76,-64.973 0,0 -132.3,0 -148.11,66.723 l -158.06,-58.563 c 0,0 -115.82,-35.41 -179.07,-152.48 L 3046.52,153.41 V 0"
         style="fill:#63cce8;fill-opacity:1;fill-rule:nonzero;stroke:none"
         id="path54" /><path
         d="m 3592.8,890.07 c -8.39,-19.39 -20.06,-37.34 -36.41,-53.109 -40.66,-39.191 -88.33,-70.949 -140.6,-92.41 -64.13,-26.321 -160.94,-29.68 -211.9,23.16 -41.31,42.809 -63.97,107.66 -81.89,163.269 -34.86,108.13 -34.42,226.26 -25.56,338.54 2.03,25.63 4.61,51.26 8.88,76.6 39.9,244.94 249.46,244.39 249.46,244.39 158.24,6.88 302.68,-67.88 326.99,-234.65 9.34,-63.86 -2.97,-132.44 -6.17,-196.31 -2.37,-46.92 -8.12,-93.75 -23.15,-138.5 -15.29,-45.671 -40.57,-86.902 -59.65,-130.98"
         style="fill:#ace4f7;fill-opacity:1;fill-rule:nonzero;stroke:none"
         id="path56" /><path
         d="m 3079.5,1125.14 c -59.15,183.12 -11.43,398.44 59.26,465.81 200.22,191.01 570.03,118.32 683.02,-180.29 34.91,-92.22 18.52,-436.148 2.7,-541.871 -21.19,-141.629 -73.26,-238.66 -180.81,-238.66 2.87,116.781 -6.08,246.172 4.26,388.931 10.29,141.67 -8.55,145.15 -126.44,211.05 -58.65,32.83 -92.71,67.02 -129.14,120.23 -45.07,65.88 -11.16,88.92 -100.39,85.94 0,0 -207.39,7.07 -212.46,-311.14"
         style="fill:#5c73c1;fill-opacity:1;fill-rule:nonzero;stroke:none"
         id="path58" /><path
         d="m 3613.25,1076.81 c 0,0 20.92,87.15 87.94,51.13 0,0 30.26,-15.31 8.46,-75.16 0,0 -31.81,-86.081 -96.47,-54.608 l 0.07,78.638"
         style="fill:#ace4f7;fill-opacity:1;fill-rule:nonzero;stroke:none"
         id="path60" /><path
         d="m 4247.87,424.09 c 57.89,89.539 148.84,113.82 148.84,113.82 l 217.94,80.762 h 208.06 l 217.88,-80.762 c 0,0 90.94,-24.281 148.83,-113.82 h -941.55"
         style="fill:#ace4f7;fill-opacity:1;fill-rule:nonzero;stroke:none"
         id="path62" /><path
         d="m 5002.87,0 h 336.69 c 0,57.5117 -3.74,139.461 -3.74,139.461 -19.8,344.301 -270.72,398.449 -270.72,398.449 -195.67,47.36 -89.02,-255.262 -89.02,-255.262 -5.11,-72.937 5.74,-171.039 26.79,-282.648"
         style="fill:#63cce8;fill-opacity:1;fill-rule:nonzero;stroke:none"
         id="path64" /><path
         d="m 4575.87,544.531 h 285.62 V 823.012 H 4575.87 V 544.531"
         style="fill:#ace4f7;fill-opacity:1;fill-rule:nonzero;stroke:none"
         id="path66" /><path
         d="m 4861.49,693.582 v 129.43 h -285.62 v -64.114 c 81.46,-67.796 179.62,-76.41 285.62,-65.316"
         style="fill:#80d6f5;fill-opacity:1;fill-rule:nonzero;stroke:none"
         id="path68" /><path
         d="m 5165.57,0 c 5.47,150.16 3.8,191.398 2.45,242.621 -2.97,114.078 -27.37,210.5 -102.57,295.18 l -0.35,0.109 -203.63,66.391 c 0,0 42.82,-74.942 -144.31,-74.942 0,0 -123.28,4.789 -141.29,74.942 L 4369.09,537.91 c 0,0 -176.77,-43.488 -207.09,-229.558 L 4265.93,117.301 4262.23,0 h 903.34"
         style="fill:#63cce8;fill-opacity:1;fill-rule:nonzero;stroke:none"
         id="path70" /><path
         d="m 5058.7,1237.85 c -0.01,66.18 -2.81,132.24 -1.25,198.35 1,42.26 4.88,31.36 -44.06,36 -67.83,6.44 -90.5,-119.55 -95.26,-174.08 -6.56,-75.16 9.71,-156.06 22.22,-229.31 4.5,-26.47 3.28,-79.501 30.98,-91.912 23.7,-10.609 48.42,15.551 60.88,34.922 28.59,44.55 23.54,112.64 25.44,163.2 0.77,20.97 1.05,41.9 1.05,62.83"
         style="fill:#5c73c1;fill-opacity:1;fill-rule:nonzero;stroke:none"
         id="path72" /><path
         d="m 5029.35,861.77 c -28.88,-112.95 -79.71,-144.079 -79.71,-144.079 l -68.19,-13.3 c -39.25,4.968 -106.92,20.941 -106.92,20.941 -155.76,52.957 -200.89,67.27 -225.05,126.469 -1.01,2.508 -122.77,425.159 -122.77,425.159 -19.92,217.55 207.79,262.82 242.17,268.49 34,7.86 250.83,68.11 314.88,-140.73 0,0 94.61,-241.97 45.59,-542.95"
         style="fill:#ace4f7;fill-opacity:1;fill-rule:nonzero;stroke:none"
         id="path74" /><path
         d="m 4403.32,1476.65 c -75.66,-36.46 -78.26,-104.01 -74.72,-180.82 2.76,-59.56 21.16,-110.35 42.44,-168.11 36.33,-98.55 36.33,-98.55 68.53,-155.2 0,0 50.16,-77.961 114.77,-131.418 -18.72,74.128 -23.96,129.507 -41.01,186.448 -20.51,68.36 -14.5,159.9 15.94,230.05 0,0 17.24,46.71 88.04,60.04 70.81,13.34 0,0 0,0 l -213.99,159.01"
         style="fill:#4f62a5;fill-opacity:1;fill-rule:nonzero;stroke:none"
         id="path76" /><path
         d="m 4527.68,1042.22 c 0,0 -38.51,83.89 -99.03,34.2 0,0 -27.55,-21.5 6.39,-77.65 0,0 49.28,-80.7 108.33,-35.989 l -15.69,79.439"
         style="fill:#ace4f7;fill-opacity:1;fill-rule:nonzero;stroke:none"
         id="path78" /><path
         d="m 4521.64,1237.85 c 0,0 0.25,-150.17 27.84,-229.82 l -29.26,-5.8 c 0,0 -15.4,102.99 -68.41,104.21 l 69.83,131.41"
         style="fill:#4f62a5;fill-opacity:1;fill-rule:nonzero;stroke:none"
         id="path80" /><path
         d="m 5096.14,1559.47 c 243.42,-247.91 -493.2,-245.4 -493.2,-245.4 0,0 -77.27,-35.72 -199.62,162.58 0,0 -32.99,155.1 315.32,203.94 0,0 230.25,28.23 377.5,-121.12"
         style="fill:#5c73c1;fill-opacity:1;fill-rule:nonzero;stroke:none"
         id="path82" /><path
         d="m 4450.86,0 h -314.75 c 0.1,0 1.11,74.7109 1.27,80.0117 2.37,73.4683 7,147.4573 20.25,219.8673 18.91,103.512 69.17,195.293 179.8,221.59 50.63,12.043 95.65,-18.61 123.07,-60.289 0,0 50.09,-61.731 -9.64,-461.18"
         style="fill:#63cce8;fill-opacity:1;fill-rule:nonzero;stroke:none"
         id="path84" /><path
         d="m 2015.69,1615.11 c 0,0 -262.81,-79.02 -238.03,-495.07 V 223.332 h 298.93 l -60.9,1391.778"
         style="fill:#5c73c1;fill-opacity:1;fill-rule:nonzero;stroke:none"
         id="path86" /><path
         d="M 1985.82,1346.23 V 58.0313 h 571.6 V 1143.17 c 0,0 37.56,416.3 -235.58,467.43 0,0 -336.02,60.87 -336.02,-264.37"
         style="fill:#5c73c1;fill-opacity:1;fill-rule:nonzero;stroke:none"
         id="path88" /><path
         d="m 2368.94,324.602 h -397.48 v 196.777 h 397.48 V 324.602"
         style="fill:#ace4f7;fill-opacity:1;fill-rule:nonzero;stroke:none"
         id="path90" /><path
         d="m 2807.14,0 h -268.8 l -48.05,194.07 c 0,0 -39.07,294.59 162.93,298.711 0,0 104.85,-73.5 133.42,-246.402 0,0 22.62,-138.188 20.5,-246.379"
         style="fill:#ace4f7;fill-opacity:1;fill-rule:nonzero;stroke:none"
         id="path92" /><path
         d="m 1873.55,0 36.25,146.398 c 0,0 64.26,326.954 -137.75,331.071 0,0 -146.32,-120.598 -135.71,-477.469 h 237.21"
         style="fill:#ace4f7;fill-opacity:1;fill-rule:nonzero;stroke:none"
         id="path94" /><path
         d="m 2076.59,559.629 h 245.25 V 918.68 H 2076.59 V 559.629"
         style="fill:#ace4f7;fill-opacity:1;fill-rule:nonzero;stroke:none"
         id="path96" /><path
         d="M 2321.84,772.141 V 918.68 H 2076.59 V 707.602 c 80.91,2.457 176.89,17.097 245.25,64.539"
         style="fill:#80d6f5;fill-opacity:1;fill-rule:nonzero;stroke:none"
         id="path98" /><path
         d="m 1751.51,445.121 c 55.04,85.129 141.52,108.238 141.52,108.238 l 207.27,76.77 h 197.83 l 253.42,-76.77 c 0,0 86.53,-23.109 141.55,-108.238 h -941.59"
         style="fill:#ace4f7;fill-opacity:1;fill-rule:nonzero;stroke:none"
         id="path100" /><path
         d="M 1802.28,153.41 V 0 h 795.95 l -9.33,178.16 c -9.88,343.219 28.48,343.328 28.48,343.328 -35.87,23.903 -65.83,31.871 -65.83,31.871 l -199.58,56.813 c 0,0 -43.26,-186.082 -207.92,-186.082 0,0 -127.52,68.691 -92.95,187.832 l -158.07,-58.563 c 0,0 -62.67,-19.168 -120.98,-75.89 0,0 28.18,-17.27 30.23,-324.059"
         style="fill:#63cce8;fill-opacity:1;fill-rule:nonzero;stroke:none"
         id="path102" /><path
         d="m 2348.55,890.07 c -8.38,-19.39 -20.05,-37.34 -36.41,-53.109 -40.65,-39.191 -88.32,-70.949 -140.59,-92.41 -64.14,-26.321 -160.94,-29.68 -211.91,23.16 -41.3,42.809 -63.96,107.66 -81.89,163.269 -34.86,108.13 -34.42,226.26 -25.55,338.54 2.03,25.63 4.62,51.26 8.88,76.6 39.91,244.94 249.45,244.39 249.45,244.39 158.24,6.88 302.68,-67.88 326.99,-234.65 9.36,-63.86 -2.96,-132.44 -6.17,-196.31 -2.37,-46.92 -8.12,-93.75 -23.15,-138.5 -15.29,-45.671 -40.57,-86.902 -59.65,-130.98"
         style="fill:#ace4f7;fill-opacity:1;fill-rule:nonzero;stroke:none"
         id="path104" /><path
         d="m 2369,1076.81 c 0,0 20.93,87.15 87.95,51.13 0,0 30.25,-15.31 8.45,-75.16 0,0 -31.8,-86.081 -96.46,-54.608 l 0.06,78.638"
         style="fill:#ace4f7;fill-opacity:1;fill-rule:nonzero;stroke:none"
         id="path106" /><path
         d="m 1836.24,1318.12 c -11.27,336.17 307.81,320.21 307.81,320.21 313.65,-12.87 329.25,-154.94 329.25,-154.94 37.95,-180.3 -16.35,-355.45 -16.35,-355.45 -66.67,14.55 -77.95,-74.65 -77.95,-74.65 7,142.92 -4.72,151.55 -4.72,151.55 -101.78,1.06 -175.06,11.98 -175.06,11.98 l -4.5,99.66 -24.52,-94.43 c 0,0 -144.23,3.21 -294.06,38.78 0,0 -39.9,-2.81 -39.9,-124.17 v 181.46"
         style="fill:#5c73c1;fill-opacity:1;fill-rule:nonzero;stroke:none"
         id="path108" /><path
         d="m 5323.09,2623.9 c -11.97,74.75 -41.84,146.52 -91.28,208.61 -156.31,196.3 -492.36,252.74 -693.13,94.73 -215.32,-169.44 -367.97,-563.19 -113.42,-745.26 28.62,-20.47 61.19,-38.17 96.5,-53 -9.2,-42.86 -30.13,-114.58 -70.75,-141.74 0,0 152.68,-11.73 210.1,100.73 226.56,-42.08 495.49,14.45 599.92,201.39 57.49,102.92 80.05,222.08 62.06,334.54"
         style="fill:#6a52aa;fill-opacity:1;fill-rule:nonzero;stroke:none"
         id="path110" /><path
         d="m 4463.37,1986.89 c -7.81,0 -12.36,0.35 -12.36,0.35 v 0 c 0,0 4.55,-0.35 12.36,-0.35 37.5,0 150.23,8.02 197.74,101.08 46.78,-8.69 95.37,-13.17 143.95,-13.17 186.66,0 373.1,66.22 455.97,214.56 0.44,0.79 0.89,1.6 1.33,2.4 -0.44,-0.8 -0.89,-1.6 -1.33,-2.4 -82.87,-148.34 -269.31,-214.56 -455.97,-214.56 -48.58,0 -97.17,4.48 -143.95,13.17 -47.51,-93.06 -160.24,-101.08 -197.74,-101.08 m 799,304.89 c 0.11,0.19 0.21,0.39 0.32,0.57 -0.11,-0.19 -0.21,-0.38 -0.32,-0.57 m 0.33,0.6 c 0.09,0.16 0.18,0.32 0.26,0.47 -0.08,-0.15 -0.17,-0.31 -0.26,-0.47 m -723.53,635.24 c 0.14,0.11 0.28,0.22 0.42,0.33 -0.14,-0.11 -0.27,-0.21 -0.42,-0.33 m 0.45,0.36 c 6.95,5.43 14.06,10.61 21.32,15.54 -7.26,-4.93 -14.37,-10.11 -21.32,-15.54 m 21.54,15.68 c 0.08,0.06 0.17,0.12 0.25,0.17 -0.09,-0.06 -0.16,-0.1 -0.25,-0.17 m 0.73,0.5 c 0.01,0.01 0.02,0.01 0.03,0.02 -0.02,-0.01 -0.02,-0.01 -0.03,-0.02"
         style="fill:#a1dcf3;fill-opacity:1;fill-rule:nonzero;stroke:none"
         id="path112" /><path
         d="m 4463.37,1986.89 c -7.81,0 -12.36,0.35 -12.36,0.35 40.62,27.16 61.55,98.88 70.75,141.74 v 0 0 c -35.31,14.83 -67.88,32.53 -96.5,53 -94.34,67.48 -132.75,164.03 -132.77,267.46 -0.03,175.66 110.67,371.16 246.19,477.8 0.16,0.12 0.33,0.26 0.49,0.38 0.15,0.12 0.28,0.22 0.42,0.33 0.01,0.01 0.02,0.02 0.03,0.03 6.95,5.43 14.06,10.61 21.32,15.54 0.07,0.04 0.15,0.1 0.22,0.14 0.09,0.07 0.16,0.11 0.25,0.17 0.16,0.11 0.32,0.22 0.48,0.33 0.01,0.01 0.01,0.01 0.03,0.02 45.45,30.64 96.67,51.38 150.45,63.05 -33.13,-18 -64.34,-39.27 -92.23,-65.32 -74.61,-69.65 -102.81,-170.61 -109.23,-269.73 -6.78,-104.38 16.68,-214.22 77.22,-300.62 59.3,-84.64 155.39,-126.05 255.52,-138.75 27.27,-3.46 55.1,-5.22 83.13,-5.22 129.09,0 262.15,37.43 361.81,118.76 -7.55,-18.21 -16.07,-36.09 -25.63,-53.5 -0.08,-0.15 -0.17,-0.31 -0.26,-0.47 0,-0.01 -0.01,-0.02 -0.01,-0.03 -0.11,-0.18 -0.21,-0.38 -0.32,-0.57 0,0 -0.01,-0.01 -0.01,-0.02 -0.44,-0.8 -0.89,-1.61 -1.33,-2.4 -82.87,-148.34 -269.31,-214.56 -455.97,-214.56 -48.58,0 -97.17,4.48 -143.95,13.17 -47.51,-93.06 -160.24,-101.08 -197.74,-101.08"
         style="fill:#4d51a5;fill-opacity:1;fill-rule:nonzero;stroke:none"
         id="path114" /><path
         d="m 4704.8,2517.65 c 0,-32.63 -26.45,-59.08 -59.08,-59.08 -32.64,0 -59.08,26.45 -59.08,59.08 0,32.63 26.44,59.08 59.08,59.08 32.63,0 59.08,-26.45 59.08,-59.08"
         style="fill:#ffffff;fill-opacity:1;fill-rule:nonzero;stroke:none"
         id="path116" /><path
         d="m 4891.59,2525.81 c 0,-32.63 -26.45,-59.08 -59.09,-59.08 -32.63,0 -59.07,26.45 -59.07,59.08 0,32.65 26.44,59.1 59.07,59.1 32.64,0 59.09,-26.45 59.09,-59.1"
         style="fill:#ffffff;fill-opacity:1;fill-rule:nonzero;stroke:none"
         id="path118" /><path
         d="m 5078.37,2534 c 0,-32.63 -26.44,-59.09 -59.08,-59.09 -32.63,0 -59.08,26.46 -59.08,59.09 0,32.63 26.45,59.08 59.08,59.08 32.64,0 59.08,-26.45 59.08,-59.08"
         style="fill:#ffffff;fill-opacity:1;fill-rule:nonzero;stroke:none"
         id="path120" /><path
         d="m 2730.35,2887.34 -921.75,-71.77 c -62.49,0 -113.14,-50.68 -113.14,-113.16 l 71.77,-451.66 c 0,-62.5 50.66,-113.14 113.14,-113.14 l 43.51,-2.68 h -0.01 c 0,0 25.82,-97.4 -24.83,-148.04 0,0 150.87,36.47 175.21,138.79 l 584.33,-35.92 c 62.48,0 113.14,50.66 113.14,113.14 l 71.78,571.3 c 0,62.48 -50.66,113.14 -113.15,113.14"
         style="fill:#85d5f0;fill-opacity:1;fill-rule:nonzero;stroke:none"
         id="path122" /><path
         d="m 2841.38,2795.77 c -1.34,-30.71 -3.77,-61.43 -7.22,-92.1 -7.12,-63.24 -16.62,-126.37 -27.84,-189.02 -10.1,-56.43 -22.05,-114.66 -47.77,-166.35 -43.19,-86.82 -136.54,-118.91 -227.21,-132.51 -94.83,-14.23 -190.08,-9.41 -285.4,-15.23 -52.49,-3.21 -105.22,-7.05 -157.84,-4.71 -45.23,2.01 -96.34,5.86 -136.38,29.25 -77.37,45.19 -89.85,157.48 -100.42,237.26 -12.04,90.95 -35.09,209.66 27.92,287.69 29.17,36.13 66.83,52.18 109.53,67.27 14.06,4.97 31.98,9.84 49.78,16.15 l -229.93,-17.9 c -62.49,0 -113.14,-50.68 -113.14,-113.16 l 71.77,-451.66 c 0,-62.5 50.66,-113.14 113.14,-113.14 l 43.51,-2.68 h -0.01 c 0,0 25.82,-97.4 -24.83,-148.04 0,0 150.87,36.47 175.21,138.79 l 584.33,-35.92 c 62.48,0 113.14,50.66 113.14,113.14 l 71.78,571.3 c 0,7.38 -0.77,14.59 -2.12,21.57"
         style="fill:#80afdd;fill-opacity:1;fill-rule:nonzero;stroke:none"
         id="path124" /><path
         d="m 2619.05,2586.44 c 0,-12.82 -10.4,-23.21 -23.21,-23.21 h -652.73 c -12.82,0 -23.21,10.39 -23.21,23.21 0,12.82 10.39,23.21 23.21,23.21 h 652.73 c 12.81,0 23.21,-10.39 23.21,-23.21"
         style="fill:#ffffff;fill-opacity:1;fill-rule:nonzero;stroke:none"
         id="path126" /><path
         d="m 2619.05,2488.55 c 0,-12.82 -10.4,-23.22 -23.21,-23.22 h -652.73 c -12.82,0 -23.21,10.4 -23.21,23.22 0,12.82 10.39,23.22 23.21,23.22 h 652.73 c 12.81,0 23.21,-10.4 23.21,-23.22"
         style="fill:#ffffff;fill-opacity:1;fill-rule:nonzero;stroke:none"
         id="path128" /><path
         d="m 2619.05,2390.65 c 0,-12.83 -10.4,-23.22 -23.21,-23.22 h -652.73 c -12.82,0 -23.21,10.39 -23.21,23.22 0,12.82 10.39,23.21 23.21,23.21 h 652.73 c 12.81,0 23.21,-10.39 23.21,-23.21"
         style="fill:#ffffff;fill-opacity:1;fill-rule:nonzero;stroke:none"
         id="path130" /><path
         d="m 461.777,2891.55 c 82.184,97 230.657,85.93 344.969,75.54 179.692,-16.34 360.734,-20.7 539.184,-48.95 247.2,-39.12 306.73,-189.53 306.59,-420.09 -0.09,-134.86 -36.49,-281.67 -163.22,-350.16 -15.31,-8.26 -31.19,-15.59 -47.46,-22.26 1.02,-38.88 15.75,-95.98 83.48,-137.62 0,0 -173.67,-19.01 -216.45,100.06 -167.93,-30.04 -358.296,-11.05 -513.417,-4.33 -203.668,8.87 -405.961,75.81 -446.117,300.78 -31.758,177.86 21.887,400.16 112.441,507.03"
         style="fill:#653082;fill-opacity:1;fill-rule:nonzero;stroke:none"
         id="path132" /><path
         d="m 455.891,2884.27 c -20.293,-40.56 -35.5,-83.59 -41.907,-128.7 -8.648,-60.9 -7.562,-125.16 -2.738,-186.34 7.969,-101.07 35.207,-202.31 120.785,-265.06 79.219,-58.09 178.391,-77.97 272.813,-96.85 82.601,-16.55 168.64,-25.47 252.866,-24.78 83.22,0.68 170.78,10.17 246.34,47.52 72.63,35.92 127.24,97.29 148.09,176.42 20.8,78.98 28.33,163.72 22.49,245.13 -5.66,78.87 -23.19,162.26 -70.07,227.69 -8.63,12.06 -18.03,23.1 -28.09,33.13 221.51,-46.5 276.19,-193.69 276.05,-414.38 -0.09,-134.86 -36.49,-281.67 -163.22,-350.16 -15.31,-8.26 -31.19,-15.59 -47.46,-22.26 1.02,-38.88 15.75,-95.98 83.48,-137.62 0,0 -173.67,-19.01 -216.45,100.06 -167.93,-30.04 -358.296,-11.05 -513.417,-4.33 -203.668,8.87 -405.961,75.81 -446.117,300.78 -31.055,173.96 19.602,390.32 106.555,499.75"
         style="fill:#533282;fill-opacity:1;fill-rule:nonzero;stroke:none"
         id="path134" /><path
         d="m 936.094,2642.51 c 0,-15.55 12.594,-28.13 28.136,-28.13 h 382.64 c 15.54,0 28.14,12.58 28.14,28.13 0,15.54 -12.6,28.14 -28.14,28.14 H 964.23 c -15.542,0 -28.136,-12.6 -28.136,-28.14"
         style="fill:#ffffff;fill-opacity:1;fill-rule:nonzero;stroke:none"
         id="path136" /><path
         d="m 617.652,2642.51 c 0,-15.55 12.59,-28.13 28.141,-28.13 h 207.293 c 15.547,0 28.137,12.58 28.137,28.13 0,15.54 -12.59,28.14 -28.137,28.14 H 645.793 c -15.551,0 -28.141,-12.6 -28.141,-28.14"
         style="fill:#ffffff;fill-opacity:1;fill-rule:nonzero;stroke:none"
         id="path138" /><path
         d="m 1073.95,2508.44 c 0,-15.55 12.59,-28.14 28.13,-28.14 h 244.79 c 15.54,0 28.14,12.59 28.14,28.14 0,15.54 -12.6,28.12 -28.14,28.12 h -244.79 c -15.54,0 -28.13,-12.58 -28.13,-28.12"
         style="fill:#ffffff;fill-opacity:1;fill-rule:nonzero;stroke:none"
         id="path140" /><path
         d="m 617.652,2508.44 c 0,-15.55 12.59,-28.14 28.141,-28.14 h 352.391 c 15.546,0 28.136,12.59 28.136,28.14 0,15.54 -12.59,28.12 -28.136,28.12 H 645.793 c -15.551,0 -28.141,-12.58 -28.141,-28.12"
         style="fill:#ffffff;fill-opacity:1;fill-rule:nonzero;stroke:none"
         id="path142" /><path
         d="m 936.094,2382.27 c 0,-15.56 12.594,-28.16 28.136,-28.16 h 177.25 c 15.55,0 28.14,12.6 28.14,28.16 0,15.53 -12.59,28.12 -28.14,28.12 H 964.23 c -15.542,0 -28.136,-12.59 -28.136,-28.12"
         style="fill:#ffffff;fill-opacity:1;fill-rule:nonzero;stroke:none"
         id="path144" /><path
         d="m 1191.67,2382.27 c 0,-15.56 12.6,-28.16 28.13,-28.16 h 127.07 c 15.54,0 28.14,12.6 28.14,28.16 0,15.53 -12.6,28.12 -28.14,28.12 H 1219.8 c -15.53,0 -28.13,-12.59 -28.13,-28.12"
         style="fill:#ffffff;fill-opacity:1;fill-rule:nonzero;stroke:none"
         id="path146" /><path
         d="m 617.652,2382.27 c 0,-15.56 12.59,-28.16 28.141,-28.16 h 207.293 c 15.547,0 28.137,12.6 28.137,28.16 0,15.53 -12.59,28.12 -28.137,28.12 H 645.793 c -15.551,0 -28.141,-12.59 -28.141,-28.12"
         style="fill:#ffffff;fill-opacity:1;fill-rule:nonzero;stroke:none"
         id="path148" /><path
         d="m 4251.74,2714.39 c 0,120.07 -97.35,217.43 -217.43,217.43 -27.54,0 -53.76,-5.34 -78,-14.66 -23,124.73 -132.23,219.23 -263.6,219.23 -115.25,0 -213.48,-72.71 -251.4,-174.74 -18.71,13.29 -41.51,21.17 -66.2,21.17 -63.28,0 -114.56,-51.3 -114.56,-114.56 0,-6.97 0.73,-13.77 1.92,-20.39 -22.53,12.9 -48.55,20.39 -76.38,20.39 -84.98,0 -153.87,-68.88 -153.87,-153.87 0,-68.17 44.37,-125.88 105.76,-146.09 -33.99,-38.51 -54.78,-88.94 -54.78,-144.32 0,-120.65 97.8,-218.45 218.44,-218.45 31.79,0 61.92,6.94 89.16,19.16 8.61,-112.19 102.18,-200.59 216.58,-200.59 99.1,0 182.56,66.38 208.74,157.03 38.46,-34.38 89.06,-55.45 144.71,-55.45 120.08,0 217.42,97.33 217.42,217.41 0,66 -29.5,125.01 -75.93,164.88 86.74,28.56 149.42,110.12 149.42,206.42"
         style="fill:#71d1e6;fill-opacity:1;fill-rule:nonzero;stroke:none"
         id="path150" /><path
         d="m 4251.74,2714.39 c 0,0.11 0,0.21 0,0.32 0,-0.1 0,-0.22 0,-0.32 m 0,0.44 c 0,0.07 0,0.13 0,0.21 0,-0.07 0,-0.14 0,-0.21 m 0,0.35 c 0,0.07 0,0.12 0,0.19 0,-0.07 0,-0.12 0,-0.19 m 0,0.32 c 0,0.07 0,0.14 0,0.21 0,-0.07 0,-0.14 0,-0.21 m 0,0.34 c 0,0.07 0,0.14 0,0.21 0,-0.07 0,-0.14 0,-0.21 m 0,0.32 c -0.01,0.11 -0.01,0.22 -0.01,0.32 0,-0.1 0,-0.21 0.01,-0.32 m -0.01,0.39 c 0,0.09 0,0.18 0,0.27 0,-0.09 0,-0.18 0,-0.27 m 0,0.38 c 0,0.07 0,0.14 0,0.21 0,-0.07 0,-0.14 0,-0.21 m -0.01,0.35 c 0,0.06 0,0.13 0,0.19 0,-0.06 0,-0.13 0,-0.19 m 0,0.33 c 0,0.06 0,0.13 0,0.2 0,-0.06 0,-0.14 0,-0.2 m -0.01,0.32 c 0,0.09 0,0.17 0,0.26 0,-0.09 0,-0.17 0,-0.26 m 0,0.33 c 0,0.11 0,0.21 -0.01,0.32 0.01,-0.11 0.01,-0.21 0.01,-0.32 m -0.01,0.42 c 0,0.08 0,0.16 0,0.23 0,-0.07 0,-0.15 0,-0.23 m -0.01,0.34 c 0,0.08 0,0.15 0,0.23 0,-0.08 0,-0.15 0,-0.23 m 0,0.34 c 0,0.07 -0.01,0.15 -0.01,0.22 0,-0.07 0.01,-0.15 0.01,-0.22 m -0.01,0.33 c 0,0.08 0,0.14 -0.01,0.21 0.01,-0.07 0.01,-0.14 0.01,-0.21 m -0.01,0.34 c 0,0.21 -0.01,0.43 -0.02,0.65 0.01,-0.22 0.02,-0.44 0.02,-0.65 m -0.02,0.74 c 0,0.08 0,0.16 -0.01,0.24 0.01,-0.08 0.01,-0.16 0.01,-0.24 m -0.01,0.35 c 0,0.07 0,0.14 -0.01,0.21 0.01,-0.07 0.01,-0.13 0.01,-0.21 m -0.01,0.33 c 0,0.08 0,0.15 -0.01,0.23 0.01,-0.08 0.01,-0.15 0.01,-0.23 m -0.01,0.33 c 0,0.08 -0.01,0.17 -0.01,0.25 0,-0.08 0.01,-0.17 0.01,-0.25 m -0.01,0.33 c -0.01,0.11 -0.01,0.22 -0.01,0.33 0,-0.11 0,-0.23 0.01,-0.33 m -0.02,0.38 c 0,0.1 0,0.17 -0.01,0.27 0.01,-0.09 0.01,-0.18 0.01,-0.27 m -0.01,0.39 c 0,0.07 -0.01,0.14 -0.01,0.21 0,-0.07 0.01,-0.14 0.01,-0.21 m -0.01,0.32 c -0.01,0.08 -0.01,0.15 -0.01,0.22 0,-0.07 0,-0.14 0.01,-0.22 m -0.02,0.34 c 0,0.08 0,0.15 -0.01,0.23 0.01,-0.07 0.01,-0.16 0.01,-0.23 m -0.01,0.32 c 0,0.09 -0.01,0.17 -0.01,0.26 0,-0.09 0.01,-0.17 0.01,-0.26 m -0.01,0.34 c -0.01,0.1 -0.01,0.21 -0.02,0.32 0.01,-0.11 0.01,-0.21 0.02,-0.32 m -0.02,0.43 c -0.01,0.07 -0.01,0.13 -0.01,0.2 0,-0.06 0,-0.14 0.01,-0.2 m -0.02,0.35 c 0,0.06 -0.01,0.12 -0.01,0.18 0,-0.05 0.01,-0.12 0.01,-0.18 m -0.02,0.33 c 0,0.05 0,0.12 -0.01,0.17 0.01,-0.06 0.01,-0.11 0.01,-0.17 m -0.01,0.33 c -0.01,0.06 -0.01,0.11 -0.01,0.17 0,-0.06 0,-0.11 0.01,-0.17 m -0.02,0.32 c 0,0.07 -0.01,0.15 -0.01,0.23 0,-0.08 0.01,-0.16 0.01,-0.23 m -0.02,0.32 c 0,0.1 -0.01,0.21 -0.01,0.31 0,-0.1 0.01,-0.2 0.01,-0.31 m -0.02,0.44 c 0,0.06 -0.01,0.13 -0.01,0.19 0,-0.06 0,-0.12 0.01,-0.19 m -0.02,0.34 c 0,0.06 -0.01,0.12 -0.01,0.18 0,-0.06 0.01,-0.12 0.01,-0.18 m -0.02,0.32 c 0,0.07 -0.01,0.12 -0.01,0.19 0,-0.07 0.01,-0.13 0.01,-0.19 m -0.02,0.33 c 0,0.06 -0.01,0.12 -0.01,0.18 0,-0.06 0.01,-0.12 0.01,-0.18 m -0.02,0.32 c 0,0.08 -0.01,0.14 -0.01,0.21 0,-0.07 0.01,-0.14 0.01,-0.21 m -0.03,0.42 c 0,0.08 0,0.14 -0.01,0.22 0.01,-0.08 0.01,-0.14 0.01,-0.22 m -0.02,0.34 c 0,0.06 -0.01,0.13 -0.01,0.2 0,-0.07 0.01,-0.14 0.01,-0.2 m -0.02,0.34 c 0,0.05 -0.01,0.12 -0.01,0.18 0,-0.06 0.01,-0.12 0.01,-0.18 m -0.02,0.33 c -0.01,0.05 -0.01,0.11 -0.01,0.17 0,-0.06 0,-0.12 0.01,-0.17 m -0.02,0.32 c -0.01,0.06 -0.01,0.1 -0.02,0.16 0.01,-0.06 0.01,-0.1 0.02,-0.16 m -0.03,0.33 c 0,0.1 -0.01,0.19 -0.02,0.29 0.01,-0.1 0.02,-0.2 0.02,-0.29 m -0.03,0.44 c 0,0.06 -0.01,0.11 -0.01,0.17 0,-0.06 0.01,-0.1 0.01,-0.17 m -0.02,0.33 c -0.01,0.06 -0.01,0.1 -0.02,0.16 0.01,-0.06 0.01,-0.1 0.02,-0.16 m -0.03,0.33 c 0,0.05 -0.01,0.1 -0.01,0.15 0,-0.06 0.01,-0.09 0.01,-0.15 m -0.02,0.32 c -0.01,0.05 -0.01,0.08 -0.01,0.14 0,-0.04 0,-0.1 0.01,-0.14 m -0.03,0.33 c 0,0.04 -0.01,0.07 -0.01,0.12 0,-0.05 0.01,-0.08 0.01,-0.12 m -0.04,0.53 c 0,0.02 -0.01,0.04 -0.01,0.07 0,-0.02 0.01,-0.05 0.01,-0.07 m -0.02,0.26 c -0.01,0.04 -0.01,0.08 -0.01,0.13 0,-0.05 0,-0.09 0.01,-0.13 m -0.03,0.3 c 0,0.05 -0.01,0.1 -0.01,0.15 0,-0.05 0.01,-0.1 0.01,-0.15 m -0.03,0.32 c 0,0.05 0,0.09 -0.01,0.14 0,-0.04 0.01,-0.1 0.01,-0.14 m -0.02,0.33 c -0.01,0.03 -0.01,0.06 -0.01,0.1 0,-0.04 0,-0.07 0.01,-0.1 m -0.11,1.16 c 0,0.02 0,0.03 0,0.05 0,-0.02 0,-0.03 0,-0.05 m -0.03,0.29 c 0,0.02 0,0.04 0,0.06 0,-0.02 0,-0.04 0,-0.06 m -0.03,0.31 c 0,0.02 0,0.03 0,0.05 0,-0.02 0,-0.03 0,-0.05 m -0.03,0.3 c 0,0.01 0,0.02 0,0.03 0,0 0,-0.02 0,-0.03 m -0.11,1.17 v 0.01 -0.01 m -0.03,0.29 v 0.02 -0.02 m -1063.69,131.14 h -0.01 0.01 m -0.23,0 c -0.04,0 -0.08,0 -0.12,0 0.04,0 0.08,0 0.12,0 m -0.27,0 c -0.09,0 -0.19,0 -0.29,0 0.1,0 0.2,0 0.29,0"
         style="fill:#cceef7;fill-opacity:1;fill-rule:nonzero;stroke:none"
         id="path152" /><path
         d="m 3607.38,2024.1 c -114.4,0 -207.97,88.4 -216.58,200.59 -27.24,-12.22 -57.37,-19.16 -89.16,-19.16 -120.64,0 -218.44,97.8 -218.44,218.45 0,55.38 20.79,105.81 54.78,144.32 v 0 0 c -61.39,20.21 -105.76,77.92 -105.76,146.09 0,84.99 68.89,153.87 153.87,153.87 v 0 c 0.1,0 0.2,0 0.29,0 0.05,0 0.1,0 0.15,0 0.04,0 0.08,0 0.12,0 0.07,0 0.15,0 0.22,0 h 0.01 c 10.82,-0.06 21.36,-1.29 31.53,-3.49 -134.66,-59.34 -106.3,-261.2 13.72,-269.04 -0.34,0.03 -0.67,0.04 -1.01,0.04 -18.27,0 -38.96,-31.56 -46.26,-44.29 -16.56,-28.91 -27.98,-70.83 -31.27,-103.91 -8.28,-82.87 71.91,-149.62 151.49,-149.62 15.36,0 30.7,2.49 45.37,7.82 13.57,4.94 26.15,12.15 37.98,20.38 4.68,3.26 35.07,22.57 34.6,27.7 8.13,-91.95 63.55,-160.99 158.52,-172.58 7.05,-0.86 14.28,-1.28 21.64,-1.28 41.79,0 87.33,13.42 121.3,34.92 48.63,30.8 66.82,101.87 65.42,156.63 28.94,-34.58 65.89,-52.57 104.39,-52.56 33.55,0 68.29,13.67 99.89,41.91 60.74,54.29 45.67,121.52 3.93,175.22 1.84,-0.18 3.74,-0.27 5.69,-0.27 29.67,0 71.98,20.3 93.54,36.54 53.07,39.99 73.58,116.21 71.82,179.92 -1.79,64.24 -36.2,129.31 -82.79,173.19 87.79,-21.58 154.63,-96.43 164.19,-188.35 v -0.02 c 0.01,-0.1 0.02,-0.18 0.03,-0.28 v -0.01 c 0.04,-0.38 0.07,-0.76 0.11,-1.14 0,-0.01 0,-0.02 0,-0.03 0.01,-0.08 0.02,-0.17 0.03,-0.25 0,-0.02 0,-0.03 0,-0.05 0.01,-0.07 0.02,-0.16 0.03,-0.25 0,-0.02 0,-0.04 0,-0.06 0.01,-0.08 0.02,-0.16 0.03,-0.24 0,-0.02 0,-0.03 0,-0.05 0.03,-0.35 0.07,-0.71 0.1,-1.06 0,-0.04 0,-0.07 0.01,-0.1 0,-0.06 0.01,-0.13 0.01,-0.19 0.01,-0.05 0.01,-0.09 0.01,-0.14 0.01,-0.06 0.01,-0.11 0.02,-0.17 0,-0.05 0.01,-0.1 0.01,-0.15 0.01,-0.05 0.01,-0.12 0.02,-0.17 0,-0.05 0,-0.09 0.01,-0.13 0,-0.07 0.01,-0.13 0.01,-0.19 0,-0.03 0.01,-0.05 0.01,-0.07 0.01,-0.14 0.02,-0.27 0.03,-0.41 0,-0.05 0.01,-0.08 0.01,-0.12 0.01,-0.07 0.01,-0.13 0.02,-0.19 0,-0.06 0,-0.09 0.01,-0.14 0,-0.06 0.01,-0.12 0.01,-0.17 0,-0.05 0.01,-0.1 0.01,-0.15 0.01,-0.05 0.01,-0.12 0.01,-0.17 0.01,-0.06 0.01,-0.1 0.02,-0.16 0,-0.05 0,-0.11 0.01,-0.16 0,-0.06 0.01,-0.11 0.01,-0.17 0,-0.04 0.01,-0.1 0.01,-0.15 0.01,-0.1 0.02,-0.19 0.02,-0.29 0.01,-0.06 0.01,-0.11 0.01,-0.17 0.01,-0.06 0.01,-0.1 0.02,-0.16 0,-0.05 0,-0.11 0.01,-0.15 0,-0.06 0,-0.12 0.01,-0.17 0,-0.05 0.01,-0.1 0.01,-0.15 0,-0.06 0.01,-0.13 0.01,-0.18 0,-0.05 0.01,-0.09 0.01,-0.14 0,-0.07 0.01,-0.14 0.01,-0.2 0.01,-0.04 0.01,-0.09 0.01,-0.12 0.01,-0.08 0.01,-0.14 0.01,-0.22 0.01,-0.07 0.01,-0.14 0.02,-0.21 0,-0.07 0.01,-0.13 0.01,-0.21 0,-0.04 0.01,-0.1 0.01,-0.14 0,-0.06 0.01,-0.12 0.01,-0.18 0,-0.05 0.01,-0.1 0.01,-0.14 0,-0.07 0.01,-0.12 0.01,-0.19 0,-0.05 0.01,-0.09 0.01,-0.14 0,-0.06 0.01,-0.12 0.01,-0.18 0,-0.05 0,-0.1 0.01,-0.15 0,-0.06 0.01,-0.13 0.01,-0.19 0,-0.04 0,-0.08 0.01,-0.13 0,-0.1 0.01,-0.21 0.01,-0.31 0,-0.03 0.01,-0.06 0.01,-0.09 0,-0.08 0.01,-0.16 0.01,-0.23 0,-0.05 0.01,-0.1 0.01,-0.15 0,-0.06 0,-0.11 0.01,-0.17 0,-0.05 0,-0.11 0,-0.16 0.01,-0.05 0.01,-0.12 0.01,-0.17 0.01,-0.05 0.01,-0.1 0.01,-0.15 0,-0.06 0.01,-0.12 0.01,-0.18 0,-0.05 0,-0.1 0.01,-0.15 0,-0.07 0,-0.13 0.01,-0.2 0,-0.04 0,-0.08 0,-0.11 0.01,-0.11 0.01,-0.22 0.02,-0.32 0,-0.03 0,-0.06 0,-0.08 0,-0.09 0.01,-0.17 0.01,-0.26 0,-0.03 0,-0.06 0,-0.09 0.01,-0.08 0.01,-0.15 0.01,-0.23 0,-0.04 0.01,-0.08 0.01,-0.12 0,-0.07 0,-0.14 0.01,-0.22 0,-0.03 0,-0.07 0,-0.11 0,-0.07 0.01,-0.14 0.01,-0.21 0,-0.04 0,-0.08 0,-0.12 0.01,-0.1 0.01,-0.17 0.01,-0.27 0,-0.02 0.01,-0.03 0.01,-0.05 0,-0.11 0,-0.22 0.01,-0.33 0,-0.03 0,-0.05 0,-0.08 0,-0.08 0.01,-0.17 0.01,-0.25 0,-0.04 0,-0.07 0,-0.1 0.01,-0.08 0.01,-0.15 0.01,-0.23 0,-0.03 0,-0.08 0,-0.12 0.01,-0.07 0.01,-0.14 0.01,-0.21 0,-0.04 0,-0.08 0,-0.11 0.01,-0.08 0.01,-0.16 0.01,-0.24 0,-0.04 0,-0.06 0,-0.09 0.01,-0.22 0.02,-0.44 0.02,-0.65 0,-0.04 0,-0.08 0,-0.13 0.01,-0.07 0.01,-0.13 0.01,-0.21 0,-0.04 0,-0.06 0,-0.11 0,-0.07 0.01,-0.15 0.01,-0.22 0,-0.04 0,-0.07 0,-0.11 0,-0.08 0,-0.15 0,-0.23 0,-0.04 0.01,-0.07 0.01,-0.11 0,-0.07 0,-0.15 0,-0.23 0,-0.03 0,-0.07 0,-0.1 0.01,-0.11 0.01,-0.21 0.01,-0.32 0,-0.02 0,-0.05 0,-0.07 0,-0.09 0,-0.17 0,-0.26 0.01,-0.04 0.01,-0.08 0.01,-0.12 0,-0.07 0,-0.14 0,-0.2 0,-0.05 0,-0.09 0,-0.14 0,-0.06 0,-0.13 0,-0.19 0,-0.05 0,-0.09 0.01,-0.14 0,-0.07 0,-0.14 0,-0.21 0,-0.04 0,-0.07 0,-0.11 0,-0.09 0,-0.18 0,-0.27 0,-0.02 0,-0.04 0,-0.07 0,-0.1 0,-0.21 0.01,-0.32 0,-0.03 0,-0.07 0,-0.11 0,-0.07 0,-0.14 0,-0.21 0,-0.05 0,-0.09 0,-0.13 0,-0.07 0,-0.14 0,-0.21 0,-0.04 0,-0.09 0,-0.13 0,-0.07 0,-0.12 0,-0.19 0,-0.05 0,-0.1 0,-0.14 0,-0.08 0,-0.14 0,-0.21 0,-0.04 0,-0.08 0,-0.12 0,-0.11 0,-0.21 0,-0.32 v 0 c 0,-96.3 -62.68,-177.86 -149.42,-206.42 v 0 0 c 46.43,-39.87 75.93,-98.88 75.93,-164.88 0,-120.08 -97.34,-217.41 -217.42,-217.41 -55.65,0 -106.25,21.07 -144.71,55.45 -26.18,-90.65 -109.64,-157.03 -208.74,-157.03"
         style="fill:#5ac9e2;fill-opacity:1;fill-rule:nonzero;stroke:none"
         id="path154" /><path
         d="m 3290.68,2075.97 c -20.75,-24.92 -64.06,-23.11 -96.71,4.1 -32.65,27.21 -42.28,69.46 -21.51,94.38 20.75,24.94 64.07,23.1 96.72,-4.1 32.65,-27.2 42.28,-69.46 21.5,-94.38"
         style="fill:#71d1e6;fill-opacity:1;fill-rule:nonzero;stroke:none"
         id="path156" /><path
         d="m 3177.78,2021.06 c -15.75,-18.92 -48.61,-17.52 -73.39,3.11 -24.76,20.63 -32.07,52.7 -16.31,71.61 15.75,18.91 48.6,17.52 73.38,-3.11 24.78,-20.65 32.08,-52.71 16.32,-71.61"
         style="fill:#71d1e6;fill-opacity:1;fill-rule:nonzero;stroke:none"
         id="path158" /><path
         d="m 3077.89,1996.28 c -11.1,-13.34 -34.3,-12.36 -51.79,2.21 -17.47,14.55 -22.63,37.17 -11.51,50.52 11.12,13.35 34.3,12.38 51.78,-2.2 17.48,-14.56 22.64,-37.18 11.52,-50.53"
         style="fill:#71d1e6;fill-opacity:1;fill-rule:nonzero;stroke:none"
         id="path160" /><path
         d="m 3639.4,2717.47 c -34.85,25.32 -57.59,66.27 -57.59,112.62 0,76.93 62.35,139.28 139.26,139.28 46.37,0 87.33,-22.75 112.65,-57.58 -22.97,16.68 -51.14,26.63 -81.69,26.63 -76.92,0 -139.27,-62.35 -139.27,-139.28 0,-30.55 9.96,-58.72 26.64,-81.67"
         style="fill:#5ac9e2;fill-opacity:1;fill-rule:nonzero;stroke:none"
         id="path162" /><path
         d="m 3492.14,2318.96 c 9.19,19.49 12.62,41.9 8.28,64.68 -9.63,50.69 -53.96,85.99 -103.73,85.99 -6.54,0 -13.19,-0.62 -19.86,-1.89 -22.8,-4.32 -42.39,-15.74 -57.15,-31.44 13.95,29.57 41.25,52.34 75.83,58.92 6.67,1.26 13.3,1.87 19.85,1.87 49.77,0 94.12,-35.3 103.75,-85.99 6.58,-34.56 -4.57,-68.35 -26.97,-92.14"
         style="fill:#5ac9e2;fill-opacity:1;fill-rule:nonzero;stroke:none"
         id="path164" /><path
         d="m 3514.28,2558.82 c 0,-32.63 -26.47,-59.08 -59.08,-59.08 -32.64,0 -59.1,26.45 -59.1,59.08 0,32.65 26.46,59.08 59.1,59.08 32.61,0 59.08,-26.43 59.08,-59.08"
         style="fill:#ffffff;fill-opacity:1;fill-rule:nonzero;stroke:none"
         id="path166" /><path
         d="m 3701.06,2566.99 c 0,-32.61 -26.45,-59.08 -59.09,-59.08 -32.62,0 -59.08,26.47 -59.08,59.08 0,32.64 26.46,59.09 59.08,59.09 32.64,0 59.09,-26.45 59.09,-59.09"
         style="fill:#ffffff;fill-opacity:1;fill-rule:nonzero;stroke:none"
         id="path168" /><path
         d="m 3887.85,2575.17 c 0,-32.63 -26.44,-59.09 -59.09,-59.09 -32.62,0 -59.08,26.46 -59.08,59.09 0,32.63 26.46,59.08 59.08,59.08 32.65,0 59.09,-26.45 59.09,-59.08"
         style="fill:#ffffff;fill-opacity:1;fill-rule:nonzero;stroke:none"
         id="path170" /></g></g></svg>
